<?xml version="1.0" encoding="UTF-8" standalone="no"?>
<!-- Created with Inkscape (http://www.inkscape.org/) -->

<svg
   xmlns:dc="http://purl.org/dc/elements/1.1/"
   xmlns:cc="http://creativecommons.org/ns#"
   xmlns:rdf="http://www.w3.org/1999/02/22-rdf-syntax-ns#"
   xmlns:svg="http://www.w3.org/2000/svg"
   xmlns="http://www.w3.org/2000/svg"
   xmlns:sodipodi="http://sodipodi.sourceforge.net/DTD/sodipodi-0.dtd"
   xmlns:inkscape="http://www.inkscape.org/namespaces/inkscape"
   width="210mm"
   height="297mm"
   viewBox="0 0 210 297"
   version="1.1"
   id="svg8"
   inkscape:version="0.92.5 (2060ec1f9f, 2020-04-08)"
   sodipodi:docname="drawing.svg">
  <defs
     id="defs2" />
  <sodipodi:namedview
     id="base"
     pagecolor="#ffffff"
     bordercolor="#666666"
     borderopacity="1.0"
     inkscape:pageopacity="0.0"
     inkscape:pageshadow="2"
     inkscape:zoom="0.7"
     inkscape:cx="-27.05433"
     inkscape:cy="354.29622"
     inkscape:document-units="mm"
     inkscape:current-layer="layer1"
     showgrid="false"
     inkscape:window-width="1920"
     inkscape:window-height="1016"
     inkscape:window-x="0"
     inkscape:window-y="27"
     inkscape:window-maximized="1" />
  <metadata
     id="metadata5">
    <rdf:RDF>
      <cc:Work
         rdf:about="">
        <dc:format>image/svg+xml</dc:format>
        <dc:type
           rdf:resource="http://purl.org/dc/dcmitype/StillImage" />
        <dc:title></dc:title>
      </cc:Work>
    </rdf:RDF>
  </metadata>
  <g
     inkscape:label="Layer 1"
     inkscape:groupmode="layer"
     id="layer1">
    <path
       style="fill:#217821;stroke-width:0.07861846"
       d="m 92.212808,172.0887 c -4.795987,-0.21879 -9.31366,-0.68414 -13.653038,-1.4063 -0.550941,-0.0917 -1.021669,-0.16672 -1.046063,-0.16672 -0.02438,0 -0.03522,-0.94258 -0.02407,-2.09462 l 0.02027,-2.09461 2.279518,-0.0936 c 4.750615,-0.19513 8.466971,-0.29175 11.625542,-0.30224 l 3.267307,-0.0108 0.02141,3.11143 0.02133,3.11142 -1.009165,-0.0156 c -0.555041,-0.009 -1.231424,-0.0257 -1.503063,-0.0382 z m 0.759839,-2.53191 c 0,-1.84525 -0.0079,-1.95182 -0.170961,-2.29689 -0.558565,-1.18226 -2.141232,-1.15878 -2.649586,0.0394 -0.122322,0.2883 -0.139692,0.56114 -0.141159,2.21742 l -0.0015,1.88868 0.892811,0.0257 c 0.491049,0.0142 1.157803,0.0337 1.481689,0.0433 l 0.588878,0.0174 z m -4.900963,-0.17992 c 0,-1.68396 -0.01216,-1.85233 -0.151969,-2.10646 -0.527842,-0.95936 -1.807331,-0.88348 -2.212891,0.13125 -0.07749,0.1939 -0.104621,0.69469 -0.104621,1.93192 0,0.9186 0.02563,1.67316 0.05699,1.67681 0.742519,0.0866 2.146772,0.21545 2.26052,0.20743 0.14717,-0.0103 0.15197,-0.0685 0.151971,-1.84095 z m -4.38347,-0.16912 -0.02362,-1.55198 -0.278809,-0.27336 c -0.515301,-0.50522 -1.178021,-0.42186 -1.562793,0.19657 -0.161097,0.25892 -0.171968,0.36049 -0.171968,1.60655 0,0.73159 0.0086,1.33331 0.01897,1.33715 0.107383,0.0396 1.463778,0.219 1.714241,0.22681 l 0.327539,0.0102 z m -3.556853,0.17294 c 0,-0.98715 -0.07384,-1.25791 -0.390936,-1.43345 -0.325845,-0.18039 -0.583649,-0.14257 -0.830649,0.12185 -0.218539,0.23396 -0.222109,0.25214 -0.222109,1.13173 v 0.89393 l 0.474902,0.0781 c 0.261192,0.0429 0.586026,0.0827 0.721846,0.0884 l 0.246946,0.0103 z m 14.816875,-0.48709 c 0,-1.78693 -0.02563,-3.26434 -0.05699,-3.28311 -0.186371,-0.11165 -15.668901,0.30449 -17.514295,0.47074 l -0.43691,0.0394 v -0.43509 -0.43509 l 0.854822,-0.0518 c 1.008567,-0.0611 3.8558,-0.18482 6.933531,-0.30125 3.633856,-0.13745 15.323896,-0.18876 19.299916,-0.0847 5.22536,0.13674 9.86057,0.34709 13.67711,0.62068 0.91941,0.0659 1.97084,0.11995 2.3365,0.1201 l 0.66487,2.6e-4 v 0.40827 c 0,0.38087 -0.0115,0.40563 -0.17097,0.36879 -0.79192,-0.18293 -9.87865,-0.58186 -15.23478,-0.66884 l -3.2863,-0.0534 v 3.17618 3.17619 l -0.17096,0.0491 c -0.094,0.027 -0.36718,0.0495 -0.607,0.0501 l -0.43604,8e-4 -0.0199,-3.23343 -0.0199,-3.23344 -2.298514,-0.0215 -2.29852,-0.0215 v 3.29564 3.29564 h -0.60786 -0.607871 z m 1.44369,0.0765 v -3.17243 l 1.23474,3.1e-4 c 0.6791,1.6e-4 1.6194,0.0241 2.08955,0.0531 l 0.854834,0.0527 v 3.06706 3.06708 l -0.46706,0.0522 c -0.256874,0.0287 -1.197174,0.0522 -2.089554,0.0522 h -1.62251 z m 3.01329,2.52167 h 0.55796 v -1.93947 c 0,-1.87331 -0.006,-1.9517 -0.1768,-2.29798 -0.57529,-1.16654 -2.07906,-1.15825 -2.63795,0.0145 -0.13565,0.28464 -0.14863,0.48744 -0.14863,2.32058 v 2.00868 l 0.92373,-0.0532 c 0.50806,-0.0293 1.17482,-0.0531 1.48169,-0.0531 z m 2.837484,-2.56235 v -3.0504 l 1.3867,8e-4 c 3.22041,0.002 13.4033,0.39729 15.95663,0.61967 l 0.58887,0.0513 v 1.48762 1.48763 l -0.37934,0.0871 c -1.80109,0.41349 -5.71326,1.11183 -8.20684,1.46493 -2.69793,0.38203 -7.93039,0.90176 -9.07861,0.90176 h -0.26741 z m 3.00136,2.2499 0.68386,-0.0535 v -1.99908 -1.99908 l -0.21399,-0.34596 c -0.23259,-0.37605 -0.69157,-0.65498 -1.07774,-0.65498 -0.48716,0 -1.07763,0.43355 -1.24868,0.91685 -0.0495,0.13996 -0.081,1.01923 -0.081,2.26155 v 2.03254 l 0.62687,-0.0524 c 0.34477,-0.0288 0.9346,-0.0764 1.31073,-0.10592 z m 3.7261,-0.37833 c 0.49991,-0.0667 0.91748,-0.12165 0.92791,-0.12201 0.0105,-3.1e-4 0.019,-0.77297 0.019,-1.71692 0,-1.90577 -0.0414,-2.11613 -0.48426,-2.45423 -0.32561,-0.24864 -1.08112,-0.25744 -1.38306,-0.0161 -0.45346,0.36246 -0.48817,0.54583 -0.48817,2.5788 v 1.85186 h 0.24983 c 0.13741,0 0.65885,-0.0546 1.15876,-0.12137 z m 4.13824,-0.56523 0.56988,-0.0929 0.0209,-1.45959 c 0.0223,-1.56702 -0.016,-1.7976 -0.34528,-2.07487 -0.23464,-0.19759 -0.82103,-0.21575 -1.06476,-0.033 -0.35757,0.26812 -0.3964,0.4856 -0.3964,2.22026 v 1.62319 l 0.32294,-0.0451 c 0.17761,-0.0248 0.57936,-0.0869 0.8928,-0.13799 z m 3.40028,-0.58288 0.77883,-0.14169 v -0.92535 c 0,-1.03783 -0.0843,-1.32162 -0.45342,-1.52596 -0.45533,-0.25207 -1.03974,-0.0835 -1.25493,0.36201 -0.0865,0.17902 -0.11526,0.5153 -0.11526,1.34629 0,1.01617 0.0109,1.10431 0.13297,1.06703 0.0731,-0.0223 0.48345,-0.10441 0.91181,-0.18233 z m 2.45048,-4.39448 c -0.62131,-0.0877 -6.89561,-0.42567 -11.20763,-0.60366 -5.49106,-0.22665 -19.062067,-0.18151 -25.416633,0.0846 -0.982092,0.0412 -2.409641,0.10011 -3.172328,0.13108 l -1.386708,0.0563 v -2.08463 -2.08462 l 0.170962,-0.0421 c 0.321758,-0.0794 3.133043,-0.52171 4.881971,-0.76822 3.171237,-0.44699 5.982135,-0.74852 9.308034,-0.99848 1.915446,-0.14396 9.663352,-0.14335 11.511572,8e-4 5.13621,0.40089 9.75851,1.12236 14.79786,2.30974 l 1.42471,0.33569 v 1.85735 1.85734 l -0.36093,-0.0121 c -0.19851,-0.007 -0.4464,-0.0243 -0.55088,-0.039 z m -0.75984,-1.74241 c 0,-1.45673 -0.0533,-1.67388 -0.47859,-1.95153 -0.48897,-0.31917 -1.202,-0.12203 -1.45532,0.40239 -0.0914,0.1892 -0.11765,0.52527 -0.11765,1.50504 v 1.26146 l 0.58887,0.0277 c 0.32388,0.0152 0.78549,0.0351 1.02578,0.0441 l 0.43691,0.0163 z m -3.80086,-0.42302 c -0.002,-1.27112 -0.022,-1.53243 -0.14301,-1.81768 -0.36274,-0.85509 -1.47003,-0.94835 -2.01293,-0.16956 -0.14748,0.21156 -0.16173,0.35199 -0.18339,1.8064 l -0.0235,1.57701 0.59335,0.0279 c 0.32635,0.0153 0.85835,0.0352 1.18223,0.0442 l 0.58888,0.0164 -0.002,-1.48453 z m -34.083354,1.35381 c 0.167087,-0.0687 0.170794,-1.31814 0.0049,-1.66152 -0.230137,-0.47643 -0.964069,-0.647 -1.357693,-0.31553 -0.334486,0.28166 -0.426643,0.56915 -0.426643,1.33097 v 0.69546 h 0.829609 c 0.456286,0 0.883695,-0.0222 0.949799,-0.0494 z m 3.752349,-0.15985 c 0.117183,-0.039 0.121712,-1.27301 0.0065,-1.75967 -0.147746,-0.62386 -0.675408,-1.05961 -1.283112,-1.05961 -0.440503,0 -0.765671,0.17529 -1.040851,0.5611 -0.203662,0.28553 -0.213972,0.34371 -0.237928,1.3428 l -0.02502,1.04433 1.240789,-0.048 c 0.682433,-0.0264 1.285295,-0.0628 1.339689,-0.0809 z m 25.908185,-1.56534 c 0.0121,-0.97081 -0.0122,-1.78305 -0.0589,-1.96889 -0.24535,-0.97538 -1.33677,-1.35535 -2.0277,-0.70591 -0.44924,0.42226 -0.47937,0.58109 -0.47937,2.52714 v 1.74348 l 1.07981,0.0116 c 0.59391,0.007 1.09684,0.0299 1.11765,0.0522 0.0208,0.0222 0.10761,0.0298 0.19291,0.0167 0.14953,-0.0229 0.15583,-0.083 0.17567,-1.67631 z m -22.14392,1.47725 1.037793,-0.0532 v -1.11342 c 0,-1.00858 -0.01667,-1.14716 -0.176791,-1.47192 -0.502884,-1.01974 -1.782158,-1.18219 -2.510749,-0.31884 -0.356141,0.42202 -0.426875,0.74865 -0.427376,1.97361 l -2.85e-4,1.03713 h 0.519875 c 0.285925,0 0.986877,-0.024 1.557668,-0.0533 z m 17.45033,-1.781 c 0,-1.91925 -0.0243,-2.0843 -0.37008,-2.50595 -0.43386,-0.52917 -1.36731,-0.60995 -1.88927,-0.1635 -0.52493,0.449 -0.55181,0.57606 -0.55195,2.6103 l -1.3e-4,1.80774 1.12075,0.0249 c 0.61642,0.0138 1.24899,0.0329 1.40571,0.0428 l 0.28497,0.018 z m -12.054789,1.67202 1.052436,-3.1e-4 -0.02912,-1.36252 c -0.03153,-1.47495 -0.08972,-1.71282 -0.547926,-2.24079 -0.490123,-0.56476 -1.383508,-0.70765 -2.084894,-0.33348 -0.806162,0.43006 -1.000585,0.94938 -1.000585,2.67261 0,0.68039 0.02568,1.26576 0.05699,1.30084 0.03133,0.0351 0.381819,0.0414 0.778831,0.0139 0.397018,-0.0274 1.195448,-0.0499 1.774291,-0.0502 z m 6.963859,-1.57668 c 0,-1.77046 -0.0788,-2.22205 -0.470964,-2.70026 -0.84688,-1.03258 -2.35549,-0.82886 -2.96993,0.40106 -0.15636,0.313 -0.17007,0.46279 -0.19263,2.1047 l -0.0243,1.76773 1.77193,0.0218 c 0.97455,0.0121 1.797564,0.0105 1.828904,-0.003 0.0313,-0.0138 0.057,-0.73013 0.057,-1.59179 z m 18.92001,-1.36054 c -9.13806,-2.2418 -18.25044,-3.05546 -27.274571,-2.43537 -3.851174,0.26464 -9.199631,0.9204 -13.338852,1.63547 -0.501494,0.0866 -0.939417,0.15752 -0.973164,0.15753 -0.03374,1e-5 -0.05085,-0.15455 -0.03799,-0.34345 l 0.02338,-0.34347 1.228004,-0.29797 c 6.244113,-1.51508 13.742399,-2.26013 20.409379,-2.02794 6.658454,0.23191 12.637684,1.11325 18.844324,2.77766 2.25653,0.60512 2.18327,0.57547 2.18327,0.88393 0,0.13532 -0.0256,0.24168 -0.057,0.23633 -0.0313,-0.006 -0.48439,-0.11456 -1.00678,-0.24272 z m -0.22796,-0.89209 c -1.5327,-0.48398 -5.32854,-1.3489 -7.98482,-1.81943 -2.82905,-0.50113 -6.5534,-0.94701 -8.88361,-1.06352 -0.52238,-0.0261 -1.06157,-0.0658 -1.19816,-0.0883 l -0.24837,-0.0407 0.0204,-1.84661 0.0204,-1.84662 0.56987,0.0197 c 0.31344,0.0108 1.18536,0.0949 1.9376,0.18679 4.45481,0.54424 8.41913,1.51113 12.2295,2.98273 1.29293,0.49934 3.14475,1.31194 3.77847,1.65806 l 0.29058,0.1587 v 0.9338 c 0,0.5136 -0.009,0.93101 -0.019,0.9276 -0.0105,-0.003 -0.24125,-0.0764 -0.51288,-0.16218 z m -1.20784,-1.33649 c -0.023,-0.69451 -0.18129,-0.93545 -0.61469,-0.93545 -0.4668,0 -0.72567,0.37951 -0.67153,0.9845 0.0241,0.26828 0.0375,0.27823 0.55647,0.41225 0.76432,0.19735 0.7518,0.20526 0.72975,-0.4613 z m -2.8193,-0.73835 c 0,-0.66266 -0.0112,-0.70962 -0.22211,-0.93546 -0.1616,-0.17299 -0.29518,-0.23777 -0.49033,-0.23777 -0.59468,0 -0.91107,0.40793 -0.86834,1.11961 l 0.0231,0.38503 0.72184,0.17343 c 0.39702,0.0954 0.74749,0.17781 0.77883,0.18314 0.0313,0.006 0.057,-0.30426 0.057,-0.68798 z m -3.49526,-0.97523 c 0,-0.51836 -0.0369,-1.01453 -0.0821,-1.10503 -0.0452,-0.0903 -0.19902,-0.21653 -0.34193,-0.28044 -0.2252,-0.10073 -0.29445,-0.10073 -0.51965,0 -0.14291,0.064 -0.29678,0.19013 -0.34193,0.28044 -0.0452,0.0903 -0.0821,0.53199 -0.0821,0.98148 0,0.92002 -0.0743,0.81985 0.72184,0.97306 0.70112,0.13493 0.64587,0.2076 0.64587,-0.84951 z m -3.3433,-0.64801 c 0,-0.70318 -0.0339,-1.10637 -0.1094,-1.29973 -0.14629,-0.37483 -0.51889,-0.60857 -0.97072,-0.60894 -0.2921,-2.5e-4 -0.40756,0.046 -0.62503,0.25042 -0.14963,0.14064 -0.30072,0.38171 -0.34415,0.54907 -0.0892,0.34379 -0.10646,1.88075 -0.0213,1.89228 0.0313,0.004 0.39891,0.0544 0.81682,0.11139 0.41791,0.057 0.87097,0.10846 1.00679,0.1143 l 0.24695,0.0106 z m -4.02715,-0.44428 c 0,-0.53132 -0.0365,-1.06908 -0.081,-1.19503 -0.27861,-0.7872 -1.11151,-0.87722 -1.5177,-0.16404 -0.12561,0.22054 -0.14837,0.41204 -0.14861,1.25042 l -2.8e-4,0.98999 0.47489,0.0479 c 0.67324,0.068 1.14939,0.0924 1.21574,0.0625 0.0313,-0.0141 0.057,-0.46043 0.057,-0.99175 z m -25.606588,1.63465 v -1.5373 l 1.348715,-0.73069 c 3.792958,-2.0549 7.175019,-3.07653 11.765923,-3.55413 l 0.463313,-0.0482 1.113353,2.64213 c 0.612345,1.45316 1.113352,2.65665 1.113352,2.67441 0,0.0178 -0.606919,0.0575 -1.348712,0.0882 -4.154362,0.17242 -9.071754,0.82961 -13.19522,1.76347 -0.581234,0.13164 -1.102672,0.23935 -1.158756,0.23935 -0.0817,0 -0.101968,-0.3055 -0.101968,-1.53729 z m 2.493659,0.67099 0.632047,-0.13431 -0.02417,-1.25584 -0.02417,-1.25584 -0.213196,-0.19613 c -0.294899,-0.27129 -0.616074,-0.25632 -0.894421,0.0417 l -0.222104,0.23775 v 1.34846 c 0,0.74163 0.02564,1.34846 0.05699,1.3485 0.03135,3e-5 0.341412,-0.0604 0.689041,-0.13426 z m 4.230921,-0.75292 0.835824,-0.13027 v -1.50459 c 0,-1.42622 -0.0091,-1.52017 -0.17383,-1.80385 -0.184993,-0.31849 -0.690271,-0.63618 -1.011814,-0.63618 -0.368672,0 -0.854341,0.34145 -1.036887,0.729 -0.160167,0.34002 -0.170967,0.46491 -0.170967,1.97758 v 1.61463 l 0.360925,-0.058 c 0.198506,-0.0319 0.737043,-0.11664 1.196749,-0.18829 z m 4.63502,-0.53579 c 0.668656,-0.0648 1.260517,-0.11896 1.315236,-0.12025 0.07932,-0.002 0.09473,-0.31999 0.07599,-1.56827 -0.02698,-1.79751 -0.08855,-2.02574 -0.663691,-2.46067 -0.274526,-0.20759 -0.392639,-0.24396 -0.791063,-0.24355 -0.565151,5.3e-4 -0.944142,0.21698 -1.252305,0.71509 -0.20281,0.32781 -0.203965,0.33828 -0.228243,2.06427 l -0.02442,1.73477 0.176367,-0.002 c 0.097,-8e-4 0.723455,-0.0548 1.392111,-0.11963 z m 29.215828,0.90512 c -4.93818,-2.44482 -11.22174,-4.15137 -17.24835,-4.68448 -1.788364,-0.15819 -1.67165,-0.12268 -1.67165,-0.50876 v -0.33231 l 1.80462,0.0491 c 5.81918,0.15849 11.11708,1.54374 16.39353,4.28643 0.75225,0.391 1.42988,0.76266 1.50585,0.82589 0.10308,0.0858 0.132,0.20146 0.11397,0.45583 l -0.0242,0.34085 z m -41.016498,-2.22731 0.02314,-0.38611 0.759838,-0.51101 c 3.051447,-2.05222 6.96795,-3.36197 11.853034,-3.96386 1.464107,-0.18038 1.459628,-0.18092 1.554134,0.1834 0.04354,0.16778 0.07933,0.34308 0.07956,0.38958 2.31e-4,0.0501 -0.54829,0.14099 -1.348292,0.22331 -2.460647,0.25319 -4.479877,0.70494 -6.782111,1.51729 -1.978658,0.69819 -4.02146,1.66004 -5.559539,2.61773 -0.278933,0.17367 -0.528705,0.31577 -0.555049,0.31577 -0.02634,0 -0.03747,-0.17374 -0.02473,-0.3861 z m 0.997721,-2.46125 c 0.07656,-1.80171 0.368115,-3.63353 0.795265,-4.99657 l 0.205756,-0.65656 0.683855,-0.54589 c 1.457368,-1.16334 3.715146,-2.45715 5.470845,-3.13505 1.094606,-0.42264 2.153768,-0.71803 2.234267,-0.62312 0.107763,0.12706 2.311376,7.19256 2.260295,7.24725 -0.02658,0.0285 -0.51875,0.11795 -1.0937,0.19887 -3.771846,0.53085 -7.151294,1.64223 -9.966264,3.27757 l -0.638652,0.37102 z m 2.223079,-0.44234 0.601555,-0.27995 0.01882,-1.40795 c 0.02062,-1.54341 -0.01806,-1.73399 -0.390892,-1.92537 -0.321644,-0.1651 -0.65945,-0.0357 -0.824546,0.31587 -0.113395,0.24148 -0.132872,0.52417 -0.132971,1.93013 -6.4e-5,0.90597 0.02838,1.64723 0.06319,1.64723 0.03482,0 0.334004,-0.12599 0.664861,-0.27996 z m 3.982839,-1.49895 c 0.4806,-0.13924 1.123697,-0.31757 1.429101,-0.39629 l 0.555283,-0.14311 7.4e-5,-1.76033 c 8.1e-5,-1.90002 -0.03223,-2.09671 -0.41642,-2.53442 -0.770034,-0.87723 -2.12332,-0.63687 -2.601282,0.46204 -0.176251,0.40522 -0.18106,0.47296 -0.181781,2.56101 l -9.52e-4,2.14477 0.170966,-0.0403 c 0.09403,-0.0222 0.56418,-0.15416 1.044779,-0.29342 z M 79.90341,147.0551 c 0,-0.24235 0.06957,-0.34298 0.550882,-0.79678 1.611514,-1.51942 2.909826,-2.38599 4.730004,-3.15706 0.628854,-0.2664 2.311517,-0.75498 2.944375,-0.85493 l 0.360925,-0.057 v 0.39802 0.398 l -0.968795,0.29353 c -1.439265,0.43606 -2.344327,0.81227 -3.780204,1.5713 -1.173133,0.62016 -2.75779,1.64736 -3.468201,2.24815 -0.152284,0.1288 -0.297602,0.23417 -0.322931,0.23417 -0.02533,0 -0.04605,-0.12484 -0.04605,-0.2774 z"
       id="path826"
       inkscape:connector-curvature="0"
       inkscape:export-xdpi="96"
       inkscape:export-ydpi="96" />
    <text
       xml:space="preserve"
       style="font-style:normal;font-weight:normal;font-size:10.58333302px;line-height:1.25;font-family:sans-serif;letter-spacing:0px;word-spacing:0px;fill:#217821;fill-opacity:1;stroke:none;stroke-width:0.26458332;"
       x="34.645458"
       y="176.18071"
       id="text830"
       inkscape:export-xdpi="96"
       inkscape:export-ydpi="96"><tspan
         sodipodi:role="line"
         id="tspan828"
         x="34.645458"
         y="176.18071"
         style="font-style:normal;font-variant:normal;font-weight:normal;font-stretch:normal;font-size:70.55555725px;font-family:Z003;-inkscape-font-specification:Z003;fill:#217821;stroke-width:0.26458332;">&lt;</tspan></text>
    <text
       xml:space="preserve"
       style="font-style:normal;font-weight:normal;font-size:10.58333302px;line-height:1.25;font-family:sans-serif;letter-spacing:0px;word-spacing:0px;fill:#217821;fill-opacity:1;stroke:none;stroke-width:0.26458332;"
       x="115.43031"
       y="176.18071"
       id="text834"
       inkscape:export-xdpi="96"
       inkscape:export-ydpi="96"><tspan
         sodipodi:role="line"
         id="tspan832"
         x="115.43031"
         y="176.18071"
         style="font-style:normal;font-variant:normal;font-weight:normal;font-stretch:normal;font-size:70.55555725px;font-family:Z003;-inkscape-font-specification:Z003;fill:#217821;stroke-width:0.26458332;">&gt;</tspan></text>
  </g>
</svg>
